<svg version="1.2" xmlns="http://www.w3.org/2000/svg" viewBox="0 0 634 195" width="634" height="195">
	<title>Logo</title>
	<defs>
		<clipPath clipPathUnits="userSpaceOnUse" id="cp1">
			<path d="m217.73 77.51h6.84v49.36h-6.84z"/>
		</clipPath>
		<clipPath clipPathUnits="userSpaceOnUse" id="cp2">
			<path d="m217.78 120.14h26.71v6.84h-26.71z"/>
		</clipPath>
		<clipPath clipPathUnits="userSpaceOnUse" id="cp3">
			<path d="m354.1 79.85h38.35v6.84h-38.35z"/>
		</clipPath>
		<clipPath clipPathUnits="userSpaceOnUse" id="cp4">
			<path d="m262.57 92.21c10.22 0 17.95 7.88 17.95 17.68 0 9.8-7.73 17.81-17.95 17.81-10.22 0-18.09-8.01-18.09-17.81 0-9.74 7.87-17.68 18.09-17.68zm0 29c6.28 0 11.11-5.04 11.11-11.25 0-6.21-4.76-11.32-11.11-11.32-6.35 0-11.25 5.11-11.25 11.32 0 6.14 4.97 11.25 11.25 11.25z"/>
		</clipPath>
		<clipPath clipPathUnits="userSpaceOnUse" id="cp5">
			<path d="m302.48 92.21c-9.67 0-17.54 7.98-17.54 17.67 0 9.69 7.94 17.88 17.67 17.74 6.21 0 11.94-2.76 15.05-8.9l-5.66-3.11c-2 3.66-5.39 5.59-9.39 5.59-5.94 0-10.84-5.11-10.84-11.32 0-6.21 4.9-11.18 10.84-11.18 4 0 7.39 1.93 9.39 5.59l5.66-3.18c-3.11-6.08-8.84-8.91-15.05-8.91 0 0-0.13 0-0.13 0.01z"/>
		</clipPath>
		<clipPath clipPathUnits="userSpaceOnUse" id="cp6">
			<path d="m347.4 93.04l-10.84 11.8c-0.05 0.07-0.12 0.11-0.16 0.18-0.62 0.65-1.25 1.35-1.58 2.11-0.39 0.81-0.6 1.73-0.6 2.7q0.01 1.46 0.58 2.68c0.13 0.34 0.39 0.68 0.59 1.01q0.45 0.78 1.11 1.54l10.76 11.8h8.42l-10.96-12.13-3.53-3.89c-0.42-0.34-0.64-0.62-0.64-0.97 0-0.35 0.21-0.62 0.64-0.96l3.61-3.93 10.96-11.95h-8.35z"/>
		</clipPath>
		<clipPath clipPathUnits="userSpaceOnUse" id="cp7">
			<path d="m324.9 77.45h6.85v49.42h-6.85z"/>
		</clipPath>
		<clipPath clipPathUnits="userSpaceOnUse" id="cp8">
			<path d="m369.85 80.32h6.84v46.55h-6.84z"/>
		</clipPath>
		<clipPath clipPathUnits="userSpaceOnUse" id="cp9">
			<path d="m398.44 77.51v49.36h6.83v-16.78c0-6.56 4.21-11.39 10.22-11.39 6.42 0 9.74 5.18 9.74 11.18v16.98h6.83v-17.67c0-10.35-5.59-16.98-15.53-16.98-4.55 0-8.63 1.79-11.25 4.62v-19.33h-6.83z"/>
		</clipPath>
		<clipPath clipPathUnits="userSpaceOnUse" id="cp10">
			<path d="m440.69 106.71v20.16h6.84v-19.88c0-4.97 2.76-8.08 7.32-8.08 1.86 0 3.8 0.48 5.45 1.45v-6.77c-1.73-0.83-3.94-1.24-6.07-1.24-8.84 0-13.53 6.14-13.53 14.36"/>
		</clipPath>
		<clipPath clipPathUnits="userSpaceOnUse" id="cp11">
			<path d="m479.21 92.08c10.22 0 16.57 7.38 16.57 16.84v2.76h-27.06c0.76 5.8 5.17 9.88 11.25 9.88 4.14 0 7.87-1.79 9.87-5.52l5.25 2.69c-2.97 5.8-8.42 8.9-15.05 8.9-10.29 0-17.95-7.45-17.95-17.88 0-9.73 6.9-17.67 17.12-17.67zm-10.22 15.19h19.95c-0.27-5.39-4.21-9.05-9.8-9.05-5.73 0-9.46 4.01-10.15 9.05z"/>
		</clipPath>
		<clipPath clipPathUnits="userSpaceOnUse" id="cp12">
			<path d="m518.7 92.21c10.22 0 18.02 7.6 18.02 17.68v16.98h-6.49v-5.94c-2.56 4.14-7.05 6.77-12.57 6.77-9.8 0-16.98-8.01-16.98-17.81 0-9.67 7.8-17.68 18.02-17.68zm0 29c6.35 0 11.18-5.04 11.18-11.25 0-6.21-4.89-11.32-11.18-11.32-6.29 0-11.19 5.11-11.19 11.32 0 6.14 4.84 11.25 11.19 11.25z"/>
		</clipPath>
		<clipPath clipPathUnits="userSpaceOnUse" id="cp13">
			<path d="m545.14 84.27v8.77h-6.7v5.94h6.7v15.74c0 7.73 4.49 13.05 12.91 13.05 2.49 0 5.18-0.76 6.91-1.93v-6.28c-1.66 1.17-4.07 2-6.28 2-4.07 0-6.7-2.63-6.7-7.04v-15.53h12.98v-5.94h-12.98v-8.77h-6.83z"/>
		</clipPath>
	</defs>
	<style>
		.s0 { fill: #e6a848 } 
		.s1 { fill: #2e6bb1 } 
	</style>
	<g>
		<g>
		</g>
		<path class="s0" d="m598.6 80.9h4v50.3h-4z"/>
		<g>
			<g>
				<path class="s1" d="m217.7 77.5h6.9v49.4h-6.9z"/>
				<g id="Clip-Path" clip-path="url(#cp1)">
					<g>
						<path class="s1" d="m211.1 125.9l6.7-49.3 13.4 1.8-6.8 49.4z"/>
					</g>
				</g>
			</g>
			<g>
				<path class="s1" d="m217.8 120.1h26.7v6.9h-26.7z"/>
				<g id="Clip-Path" clip-path="url(#cp2)">
					<g>
						<path class="s1" d="m216.9 126.9l1.4-10.3 27.1 3.7-1.4 10.3z"/>
					</g>
				</g>
			</g>
			<g>
				<path class="s1" d="m354.1 79.9h38.4v6.8h-38.4z"/>
				<g id="Clip-Path" clip-path="url(#cp3)">
					<g>
						<path class="s1" d="m353.2 86.6l1.6-11.9 38.6 5.3-1.6 11.9z"/>
					</g>
				</g>
			</g>
			<g>
				<path fill-rule="evenodd" class="s1" d="m262.6 92.2c10.2 0 17.9 7.9 17.9 17.7 0 9.8-7.7 17.8-17.9 17.8-10.3 0-18.1-8-18.1-17.8 0-9.7 7.9-17.7 18.1-17.7zm0 29c6.3 0 11.1-5 11.1-11.2 0-6.3-4.8-11.4-11.1-11.4-6.4 0-11.3 5.1-11.3 11.4 0 6.1 5 11.2 11.3 11.2z"/>
				<g id="Clip-Path" clip-path="url(#cp4)">
					<g>
						<path class="s1" d="m239.7 127l5.4-39.7 40.2 5.5-5.5 39.7z"/>
					</g>
				</g>
			</g>
			<g>
				<path class="s1" d="m302.5 92.2c-9.7 0-17.6 8-17.6 17.7 0 9.7 8 17.9 17.7 17.7 6.2 0 11.9-2.7 15.1-8.9l-5.7-3.1c-2 3.7-5.4 5.6-9.4 5.6-5.9 0-10.8-5.1-10.8-11.3 0-6.2 4.9-11.2 10.8-11.2 4 0 7.4 1.9 9.4 5.6l5.7-3.2c-3.2-6.1-8.9-8.9-15.1-8.9 0 0-0.1 0-0.1 0z"/>
				<g id="Clip-Path" clip-path="url(#cp5)">
					<g>
						<path class="s1" d="m280.1 127.1l5.4-39.3 36.9 5-5.4 39.3z"/>
					</g>
				</g>
			</g>
			<g>
				<path class="s1" d="m347.4 93l-10.8 11.8c-0.1 0.1-0.2 0.1-0.2 0.2-0.6 0.7-1.2 1.4-1.6 2.1-0.4 0.8-0.6 1.8-0.6 2.7q0 1.5 0.6 2.7c0.1 0.3 0.4 0.7 0.6 1q0.4 0.8 1.1 1.6l10.8 11.8h8.4l-11-12.2-3.5-3.9c-0.4-0.3-0.7-0.6-0.7-0.9 0-0.4 0.3-0.7 0.7-1l3.6-3.9 11-12h-8.4z"/>
				<g id="Clip-Path" clip-path="url(#cp6)">
					<g>
						<path class="s1" d="m329.6 126.2l5-36.1 25.7 3.5-5 36.1z"/>
					</g>
				</g>
			</g>
			<g>
				<path class="s1" d="m324.9 77.5h6.9v49.4h-6.9z"/>
				<g id="Clip-Path" clip-path="url(#cp7)">
					<g>
						<path class="s1" d="m318.2 125.9l6.8-49.4 13.4 1.8-6.8 49.5z"/>
					</g>
				</g>
			</g>
			<g>
				<path class="s1" d="m369.9 80.3h6.8v46.6h-6.8z"/>
				<g id="Clip-Path" clip-path="url(#cp8)">
					<g>
						<path class="s1" d="m363.5 126l6.5-46.6 12.9 1.7-6.4 46.7z"/>
					</g>
				</g>
			</g>
			<g>
				<path class="s1" d="m398.4 77.5v49.4h6.9v-16.8c0-6.6 4.2-11.4 10.2-11.4 6.4 0 9.7 5.2 9.7 11.2v17h6.9v-17.7c0-10.4-5.6-17-15.6-17-4.5 0-8.6 1.8-11.2 4.6v-19.3h-6.8z"/>
				<g id="Clip-Path" clip-path="url(#cp9)">
					<g>
						<path class="s1" d="m391.8 125.9l7.2-53 39.7 5.5-7.3 53z"/>
					</g>
				</g>
			</g>
			<g>
				<path class="s1" d="m440.7 106.7v20.2h6.8v-19.9c0-5 2.8-8.1 7.4-8.1 1.8 0 3.8 0.5 5.4 1.5v-6.8c-1.7-0.8-3.9-1.2-6.1-1.2-8.8 0-13.5 6.1-13.5 14.3"/>
				<g id="Clip-Path" clip-path="url(#cp10)">
					<g>
						<path class="s1" d="m436 126.2l5-36.5 23.9 3.2-5 36.6z"/>
					</g>
				</g>
			</g>
			<g>
				<path fill-rule="evenodd" class="s1" d="m479.2 92.1c10.2 0 16.6 7.4 16.6 16.8v2.8h-27.1c0.8 5.8 5.2 9.9 11.3 9.9 4.1 0 7.8-1.8 9.8-5.6l5.3 2.7c-3 5.8-8.4 8.9-15.1 8.9-10.2 0-17.9-7.4-17.9-17.8 0-9.8 6.9-17.7 17.1-17.7zm-10.2 15.2h19.9c-0.2-5.4-4.2-9.1-9.8-9.1-5.7 0-9.4 4-10.1 9.1z"/>
				<g id="Clip-Path" clip-path="url(#cp11)">
					<g>
						<path class="s1" d="m457.3 126.9l5.4-39.4 37.8 5.2-5.4 39.4z"/>
					</g>
				</g>
			</g>
			<g>
				<path fill-rule="evenodd" class="s1" d="m518.7 92.2c10.2 0 18 7.6 18 17.7v17h-6.5v-6c-2.5 4.2-7 6.8-12.5 6.8-9.8 0-17-8-17-17.8 0-9.7 7.8-17.7 18-17.7zm0 29c6.3 0 11.2-5 11.2-11.2 0-6.3-4.9-11.4-11.2-11.4-6.3 0-11.2 5.1-11.2 11.4 0 6.1 4.9 11.2 11.2 11.2z"/>
				<g id="Clip-Path" clip-path="url(#cp12)">
					<g>
						<path class="s1" d="m495.8 127l5.5-39.7 40.2 5.5-5.5 39.7z"/>
					</g>
				</g>
			</g>
			<g>
				<path class="s1" d="m545.1 84.3v8.7h-6.7v6h6.7v15.7c0 7.8 4.5 13.1 12.9 13.1 2.5 0 5.2-0.8 7-2v-6.2c-1.7 1.1-4.1 2-6.3 2-4.1 0-6.7-2.7-6.7-7.1v-15.5h13v-5.9h-13v-8.8h-6.9z"/>
				<g id="Clip-Path" clip-path="url(#cp13)">
					<g>
						<path class="s1" d="m532.5 126.9l6.4-46.2 31.9 4.3-6.4 46.3z"/>
					</g>
				</g>
			</g>
		</g>
	</g>
	<g>
		<path fill-rule="evenodd" class="s0" d="m169.9 34c1.4 16.2 2.6 33.3 1 49.6-1.6 16.9-6.1 32.1-14.1 47.8-6 11.8-16 23.7-28.1 33.3-12.4 9.8-26 16.4-38.2 18.5q-0.2 0.1-0.5 0.1-0.3 0-0.5-0.1c-12.2-2.1-25.8-8.7-38.2-18.5-12.1-9.6-22.1-21.5-28.1-33.3-8-15.7-12.4-30.9-14.1-47.8-1.6-16.3-0.4-33.4 1-49.6 0.1-1.6 1.4-2.8 3-2.8q0.7 0 1.4 0c26.1 0 52.2-7.4 73.9-21.1q0.7-0.5 1.6-0.5c0.6 0 1.1 0.2 1.6 0.5 21.7 13.7 47.9 21.1 74 21.1h1.3c1.6 0 2.9 1.3 3 2.8zm-5.8 3.3c-26-0.2-52.3-7.7-74.1-21-21.8 13.3-48.1 20.8-74.1 21-1.2 14.8-2.2 30.4-0.7 45.7 1.5 16.2 5.8 30.7 13.4 45.6 5.7 11.1 15.1 22.2 26.5 31.3 11.4 9.1 23.8 15.2 34.9 17.2 11.1-2 23.5-8.1 34.9-17.2 11.4-9.1 20.8-20.2 26.5-31.3 7.6-14.9 11.8-29.4 13.4-45.6 1.5-15.3 0.5-30.9-0.7-45.7z"/>
		<g>
			<path fill-rule="evenodd" class="s0" d="m156.4 47.1c1 12.7 1.6 26.3 0 39.8-1.7 13.4-5.4 25.5-11.9 38.2-2.5 4.9-5.9 9.9-10 14.8-4.1 4.8-8.7 9.3-13.8 13.3-9.8 7.9-20.5 13.3-30.1 15.3q-0.3 0-0.6 0-0.3 0-0.6 0c-9.6-2-20.2-7.5-30.1-15.3-5-4-9.7-8.5-13.8-13.3-4.1-4.9-7.5-9.9-10-14.8-6.5-12.7-10.2-24.8-11.9-38.2-1.6-13.5-1-27.1 0-39.8 0.1-1.6 1.3-2.8 2.9-2.9 10.6-0.5 21.3-2.2 31.6-5.2 10.7-3.1 20.9-7.4 30.4-12.8q0.1-0.1 0.3-0.2 0.2-0.1 0.4-0.1c0.1-0.1 0.2-0.1 0.3-0.1q0.3 0 0.5 0 0.2 0 0.4 0c0.2 0 0.3 0 0.4 0.1 0.1 0 0.3 0 0.4 0.1q0.2 0.1 0.3 0.2c9.5 5.4 19.7 9.8 30.5 12.8 10.3 3 20.9 4.7 31.5 5.2 1.6 0.1 2.8 1.4 2.9 2.9zm-6.2 39c1.5-12.2 1-24.9 0.2-35.8-10.2-0.7-20.3-2.5-30.2-5.3-9.9-2.8-19.5-6.7-28.5-11.6l-1.7-1-1.7 1c-9 4.9-18.6 8.8-28.5 11.6-9.9 2.8-20.1 4.6-30.2 5.3-0.8 10.9-1.3 23.6 0.2 35.8 1.5 12.7 5.1 24.2 11.2 36.2 2.3 4.5 5.4 9.1 9.2 13.6 3.9 4.5 8.2 8.7 13 12.5 8.1 6.5 16.9 11.2 24.9 13.4l1.9 0.6 1.9-0.6c8-2.2 16.8-6.9 24.9-13.4 4.7-3.8 9.1-8 12.9-12.5 3.9-4.5 7-9.1 9.3-13.6 6.1-12 9.6-23.5 11.2-36.2z"/>
			<path fill-rule="evenodd" class="s1" d="m150.4 50.3c0.8 10.9 1.3 23.5-0.2 35.8-1.6 12.7-5.1 24.2-11.2 36.2-2.3 4.5-5.4 9.1-9.2 13.6-3.9 4.5-8.2 8.7-13 12.5-8.1 6.4-16.9 11.2-24.9 13.4l-1.9 0.6-1.9-0.6c-8-2.2-16.8-7-24.9-13.4-4.8-3.8-9.1-8-12.9-12.5-3.9-4.5-7-9.1-9.3-13.6-6.1-12-9.6-23.5-11.2-36.2-1.5-12.3-1-24.9-0.2-35.8 10.2-0.7 20.3-2.5 30.2-5.3 9.9-2.8 19.5-6.7 28.5-11.6l1.7-1 1.7 1c9 4.9 18.6 8.8 28.5 11.6 9.9 2.8 20.1 4.6 30.2 5.3zm-77.6 5.9c-0.7 0.4-1 1.4-0.5 2.1 0.3 0.5 0.8 0.7 1.3 0.7 0.3 0 0.6 0 0.8-0.2 4.3-2.7 9.6-4.2 15.5-4.3 5.1 0.1 9.6 1.1 13.4 3 0.7 0.4 1.7 0.1 2.1-0.7 0.3-0.7 0-1.7-0.7-2-4.3-2.1-9.2-3.3-14.8-3.5-6.6 0.3-12.3 1.9-17.1 4.9zm-14.4 21.6c-0.4 0.8-0.1 1.7 0.7 2.1 0.2 0.1 0.5 0.1 0.7 0.1 0.6 0 1.1-0.3 1.4-0.8 5.4-10.8 15.6-17.6 27.4-18.3 11.7-0.7 22.6 5.1 29.3 15.3 0.5 0.7 1.5 0.9 2.2 0.5 0.7-0.5 0.9-1.5 0.4-2.2-6.9-10.6-18-16.7-30.1-16.7q-1 0-2 0c-12.9 0.8-24.1 8.2-30 20zm-0.6 20.8c0.7 0 1.4-0.5 1.5-1.3 1.4-8.8 12.3-32.4 35-29.6 8.9 1.1 13.8 6.2 18.1 10.8 2.6 2.8 4.9 5.2 7.7 6.3 0.8 0.3 1.7-0.1 2-0.9 0.3-0.8-0.1-1.7-0.9-2-2.1-0.8-4.2-3-6.5-5.5-4.5-4.7-10-10.6-20-11.8q-2.1-0.2-4.1-0.2c-22.3 0-32.9 23.3-34.4 32.5-0.1 0.8 0.5 1.6 1.3 1.7q0.1 0.1 0.3 0.1zm8.5 31.5c0.8-0.3 1.1-1.3 0.8-2-3.8-8.6-5.2-16.8-4-24.3 1.9-13.2 10.5-28.7 28.1-28.7 12.5 0 17.5 6.6 21.4 11.9 2.9 3.7 5.5 7.2 10 5.7 0.8-0.2 1.3-1.1 1-1.9-0.3-0.9-1.2-1.3-2-1-2.2 0.7-3.5-0.7-6.5-4.7-3.9-5.2-9.8-13.1-23.9-13.1-16.1 0-28.4 12.3-31.2 31.4-1.2 8.1 0.2 16.8 4.2 25.9 0.3 0.6 0.9 0.9 1.5 0.9q0.3 0 0.6-0.1zm56.8-26.8c0.6-0.5 0.7-1.5 0.2-2.2-0.6-0.6-1.6-0.7-2.2-0.2-2 1.7-3.6 2.4-5 2.2-2.3-0.3-4.3-3.2-6.6-6.5-3.8-5.4-8.4-12.1-17.4-12.1q-1 0-2.2 0.1c-9.2 1.1-16.7 8.3-18.2 17.7-3.3 20.3 7 34.4 16.9 40.2q0.4 0.3 0.8 0.3c0.6 0 1.1-0.3 1.4-0.8 0.4-0.8 0.2-1.7-0.6-2.2-9-5.3-18.5-18.2-15.5-37 1.3-8 7.7-14.2 15.6-15.1 8.6-1 12.9 5.2 16.6 10.6 2.6 3.8 5.1 7.4 8.8 7.9 2.3 0.3 4.7-0.6 7.4-2.9zm-0.3 3c-0.6-0.6-1.6-0.6-2.2 0-2.4 2.2-4.5 3.2-6.1 3-2.5-0.3-4.7-3.5-7-7-3.4-5-7.7-11.2-15.2-11.2q-0.8 0-1.7 0.1c-7 0.7-12.6 6.3-13.8 13.4-2.9 17.3 9 32.9 18.6 37.4q0.4 0.1 0.7 0.1c0.6 0 1.1-0.3 1.4-0.9 0.4-0.7 0-1.7-0.8-2-8.7-4.1-19.4-18.3-16.8-34.1 0.9-5.8 5.5-10.2 11-10.8 6.9-0.8 10.5 4.6 14 9.8 2.7 4 5.3 7.8 9.3 8.3 2.6 0.3 5.4-1 8.5-3.9 0.7-0.5 0.7-1.5 0.1-2.2zm0.3-8c0.7-0.4 0.9-1.4 0.4-2.1-0.5-0.7-1.4-0.9-2.1-0.4-1.6 1-2.8 1.4-3.8 1.2-1.9-0.4-3.6-2.9-5.6-5.7-3.6-5.4-8.5-12.6-19.4-12.6q-0.6 0-1.3 0c-13.5 0.7-24.3 11.1-25.8 24.7-1.6 14.9 3.4 28.2 14.1 37.6 0.3 0.2 0.7 0.3 1 0.3 0.5 0 0.9-0.1 1.2-0.5 0.6-0.6 0.5-1.6-0.1-2.2-10-8.6-14.6-21-13.1-34.9 1.3-12.1 10.9-21.3 22.8-21.9 10.1-0.5 14.4 5.7 18.1 11.2 2.3 3.4 4.3 6.4 7.5 7 1.9 0.4 3.9-0.2 6.1-1.7zm-1.8 17.4c0.7-0.5 0.9-1.4 0.4-2.1-0.4-0.7-1.4-0.9-2.1-0.4-2.7 1.8-5 2.5-6.9 2-3.3-0.6-5.7-4.4-8.2-8.3-2.9-4.7-6.3-10-12-10q-0.9 0-1.9 0.2c-5 1-7.9 4.9-8.3 11-0.8 11.3 7.7 28.2 19.3 32.2q0.3 0 0.5 0c0.7 0 1.3-0.4 1.5-1 0.3-0.8-0.2-1.7-1-2-10.1-3.4-17.9-18.8-17.2-29 0.2-3.3 1.4-7.3 5.8-8.1 4.4-0.9 7 2.6 10.7 8.4 2.8 4.3 5.6 8.8 10.1 9.7 2.8 0.6 5.9-0.2 9.3-2.6zm-1.7 5.8c0.7-0.4 1-1.4 0.5-2.1-0.4-0.8-1.3-1-2.1-0.6-7.7 4.4-10.9 0.4-15.5-6.3-2.1-3.1-4.2-6.2-7-7.9-0.8-0.4-1.7-0.7-2.5-0.7q-1.3 0-2.4 0.6c-1.5 0.9-2.5 2.4-2.6 4.2-0.5 9.7 8.9 25.7 19.1 28.6q0.2 0.1 0.5 0.1c0.6 0 1.2-0.4 1.5-1.1 0.2-0.9-0.3-1.7-1.1-2-8.9-2.5-17.3-17-16.9-25.5 0-0.9 0.7-1.4 1-1.5 0.3-0.2 1-0.5 1.8 0 2.3 1.4 4.1 4 6 6.9 4 5.9 9 13.3 19.7 7.3zm-4.4 8.6c0.1-0.9-0.5-1.6-1.4-1.7-8.6-1-14-9.6-16.5-14.6-0.2-0.6-0.8-0.9-1.4-0.9q-0.3 0-0.6 0.2c-0.8 0.3-1.1 1.3-0.7 2 2.7 5.6 8.8 15.2 18.8 16.3h0.2c0.8 0 1.5-0.5 1.6-1.3z"/>
		</g>
		<path class="s0" d="m121.3 115.8c-3.4 2.3-6.5 3.2-9.3 2.6-4.5-1-7.3-5.4-10.1-9.8-3.7-5.8-6.3-9.2-10.7-8.4-4.4 0.9-5.6 4.9-5.8 8.1-0.7 10.2 7.1 25.7 17.2 29.1 0.8 0.3 1.3 1.1 1 1.9-0.2 0.7-0.8 1.1-1.5 1.1q-0.2 0-0.5-0.1c-11.6-3.9-20.1-20.8-19.3-32.2 0.4-6.1 3.3-10 8.3-10.9q1-0.2 1.9-0.2c5.7 0 9.1 5.3 12 10 2.5 3.9 4.9 7.6 8.2 8.3 1.9 0.4 4.2-0.3 6.9-2.1 0.7-0.4 1.7-0.3 2.1 0.4 0.5 0.7 0.3 1.7-0.4 2.2z"/>
		<path class="s0" d="m105.4 56.8c-0.4 0.8-1.3 1.1-2.1 0.7-3.8-1.9-8.3-2.9-13.3-3.1-6 0.2-11.3 1.7-15.5 4.4-0.3 0.2-0.6 0.2-0.9 0.2-0.5 0-1-0.2-1.3-0.7-0.4-0.7-0.2-1.7 0.5-2.2 4.8-3 10.5-4.6 17.2-4.8 5.5 0.2 10.5 1.3 14.7 3.4 0.7 0.4 1.1 1.4 0.7 2.1z"/>
		<path class="s0" d="m122.7 108.6c-3.1 2.9-5.9 4.2-8.5 3.8-4-0.4-6.6-4.2-9.3-8.3-3.5-5.2-7.1-10.5-14-9.8-5.5 0.6-10.1 5.1-11 10.8-2.6 15.9 8.1 30 16.8 34.1 0.8 0.4 1.2 1.3 0.8 2.1-0.3 0.6-0.8 0.9-1.4 0.9q-0.3 0-0.6-0.2c-9.7-4.5-21.6-20-18.7-37.4 1.2-7.1 6.8-12.6 13.8-13.4q0.9-0.1 1.7-0.1c7.5 0 11.8 6.2 15.2 11.3 2.3 3.4 4.5 6.6 7 6.9 1.6 0.2 3.7-0.8 6.1-3 0.6-0.6 1.6-0.5 2.2 0.1 0.6 0.6 0.6 1.6-0.1 2.2z"/>
		<path class="s0" d="m123.1 103.4c-2.7 2.2-5.1 3.2-7.4 2.9-3.7-0.6-6.2-4.1-8.8-7.9-3.7-5.4-8-11.6-16.6-10.6-7.9 0.9-14.2 7.1-15.6 15.1-3 18.8 6.5 31.7 15.6 37 0.7 0.4 0.9 1.4 0.5 2.1-0.3 0.5-0.8 0.8-1.3 0.8q-0.5 0-0.8-0.2c-9.9-5.9-20.3-19.9-17-40.2 1.5-9.4 9-16.7 18.2-17.7q1.2-0.1 2.3-0.1c8.9 0 13.5 6.6 17.3 12 2.3 3.4 4.3 6.3 6.6 6.6 1.4 0.2 3-0.5 5-2.2 0.7-0.6 1.6-0.5 2.2 0.2 0.5 0.6 0.5 1.6-0.2 2.2z"/>
		<path class="s0" d="m119.6 121.5c-10.7 6.1-15.7-1.3-19.7-7.3-1.9-2.8-3.7-5.5-6-6.8-0.8-0.5-1.5-0.2-1.8-0.1-0.3 0.2-1 0.7-1 1.6-0.4 8.5 8 22.9 16.9 25.5 0.8 0.2 1.3 1.1 1.1 1.9-0.2 0.7-0.9 1.2-1.5 1.2q-0.2-0.1-0.5-0.1c-10.2-3-19.6-18.9-19.1-28.6 0.1-1.8 1.1-3.4 2.6-4.2q1.2-0.6 2.4-0.6c0.9 0 1.7 0.2 2.5 0.7 2.9 1.7 4.9 4.8 7 7.8 4.6 6.8 7.8 10.7 15.5 6.4 0.8-0.5 1.7-0.2 2.2 0.6 0.4 0.7 0.1 1.6-0.6 2.1z"/>
		<path class="s0" d="m123.1 98.4c-2.2 1.5-4.2 2-6.1 1.7-3.2-0.6-5.2-3.6-7.5-7.1-3.7-5.5-8-11.7-18.1-11.2-11.9 0.7-21.5 9.9-22.8 22-1.5 13.8 3.2 26.2 13.1 34.9 0.6 0.5 0.7 1.5 0.1 2.1-0.3 0.4-0.7 0.6-1.1 0.6-0.4 0-0.8-0.1-1.1-0.4-10.7-9.3-15.7-22.7-14.1-37.5 1.5-13.7 12.3-24.1 25.8-24.8q0.7 0 1.4 0c10.8 0 15.7 7.3 19.4 12.6 1.9 2.9 3.6 5.4 5.5 5.7 1 0.2 2.2-0.2 3.8-1.2 0.7-0.5 1.6-0.3 2.1 0.4 0.5 0.7 0.3 1.7-0.4 2.2z"/>
		<path class="s0" d="m122.6 92.8c-4.5 1.5-7.1-2-10-5.8-3.9-5.3-8.9-11.9-21.4-11.9-17.6 0-26.2 15.5-28.2 28.8-1.1 7.5 0.3 15.6 4.1 24.2 0.3 0.8 0 1.7-0.8 2.1q-0.3 0.1-0.6 0.1c-0.6 0-1.2-0.3-1.5-0.9-4-9.1-5.4-17.9-4.2-26 2.8-19 15.1-31.4 31.2-31.4 14.1 0 20 7.9 23.9 13.2 3 3.9 4.3 5.3 6.5 4.6 0.9-0.2 1.7 0.2 2 1 0.3 0.8-0.2 1.7-1 2z"/>
		<path class="s0" d="m122.1 83.9c-0.3 0.8-1.2 1.2-2 0.9-2.8-1.1-5-3.5-7.7-6.3-4.3-4.6-9.2-9.7-18.1-10.8-22.7-2.8-33.6 20.8-35 29.6-0.1 0.8-0.8 1.3-1.5 1.3q-0.1 0-0.3 0c-0.8-0.1-1.4-0.9-1.2-1.8 1.4-9.1 12.1-32.5 34.3-32.5q2 0 4.1 0.3c10 1.2 15.5 7.1 20 11.8 2.4 2.5 4.4 4.6 6.6 5.5 0.8 0.3 1.1 1.2 0.8 2z"/>
		<path class="s0" d="m120.1 76.6c-0.7 0.5-1.7 0.3-2.1-0.4-6.8-10.3-17.7-16-29.4-15.3-11.8 0.6-22 7.5-27.4 18.2-0.3 0.6-0.8 0.9-1.4 0.9-0.2 0-0.4 0-0.7-0.1-0.7-0.4-1.1-1.4-0.7-2.1 5.9-11.8 17.1-19.3 30-20q1-0.1 2-0.1c12.1 0 23.2 6.2 30.1 16.8 0.5 0.7 0.3 1.7-0.4 2.1z"/>
		<path class="s0" d="m115.2 130.1c-0.1 0.8-0.8 1.4-1.6 1.4h-0.1c-10-1.2-16.2-10.7-18.9-16.3-0.4-0.8-0.1-1.7 0.7-2.1q0.3-0.1 0.7-0.1c0.5 0 1.1 0.3 1.4 0.8 2.4 5.1 7.9 13.6 16.4 14.6 0.9 0.1 1.5 0.9 1.4 1.7z"/>
	</g>
</svg>