<svg width="133" height="32" viewBox="0 0 133 32" fill="none" xmlns="http://www.w3.org/2000/svg">
<path d="M11.552 1.2695C12.2249 0.876955 12.8418 0.54049 13.4025 0.147947C13.6829 -0.0763631 14.0755 -0.0202855 14.3559 0.147947C18.7299 2.67144 23.0479 5.19493 27.4219 7.71842C27.7023 7.88665 27.8705 8.16704 27.8145 8.44743C27.8145 13.4944 27.8145 18.5414 27.8145 23.5884C27.8145 23.9248 27.6462 24.2052 27.3658 24.3174C22.9918 26.8409 18.6738 29.3083 14.3559 31.8318C14.0755 32.0561 13.739 32.0561 13.4586 31.8318C9.08456 29.3083 4.76659 26.7848 0.392542 24.2613C0.168232 24.1491 0 23.9248 0 23.6444C0 18.4853 0 13.3262 0 8.16704C0 8.11096 0.0560778 7.9988 0.0560778 7.94273C0.785086 8.33527 1.51409 8.72781 2.18702 9.17643C2.29918 9.28859 2.29918 9.62505 2.29918 9.84936C2.29918 13.8869 2.29918 17.9806 2.29918 22.0182C2.2431 22.4668 2.52349 22.9154 2.91603 23.0837C6.44892 25.1025 10.0379 27.1773 13.5708 29.1961C13.7951 29.3083 14.0194 29.3083 14.2437 29.1961C17.8327 27.1773 21.3655 25.1025 24.9545 23.0276C25.3471 22.8594 25.5714 22.4668 25.5714 22.0182C25.5714 17.9806 25.5714 13.8869 25.5714 9.84936C25.6274 9.45682 25.4031 9.06428 25.0106 8.89605C21.4216 6.98941 17.9448 4.91454 14.4119 2.89575C13.5147 2.39105 12.5614 1.83027 11.552 1.2695Z" fill="#7035CC"/>
<path d="M6.95257 3.96125C7.23296 3.79301 7.51335 3.62478 7.73766 3.51262C8.24236 3.23224 8.80313 2.72754 9.30783 2.72754C9.81253 2.72754 10.3733 3.23224 10.878 3.5687C14.7474 5.8118 18.6728 8.05491 22.5982 10.3541C23.0468 10.5784 23.3272 11.027 23.2711 11.4756C23.2151 14.5599 23.2151 17.6442 23.2711 20.7284C23.3272 21.121 23.1029 21.5696 22.7104 21.7378C19.9065 23.308 17.1587 24.9343 14.4109 26.5605C14.1305 26.7287 13.794 26.7287 13.5697 26.5605C10.7098 24.8782 7.84982 23.2519 4.98986 21.5696C4.82163 21.4574 4.76555 21.2892 4.70947 21.121C4.70947 17.7002 4.70947 14.2795 4.70947 10.7466C5.3824 11.1392 6.11141 11.5317 6.78434 11.9803C6.8965 12.0364 6.95257 12.3729 6.95257 12.5411C6.95257 14.8403 6.95257 17.1955 6.95257 19.4947C6.95257 19.7751 7.12081 20.0555 7.34512 20.2798C9.30783 21.4574 11.3266 22.579 13.2893 23.7566C13.6258 24.037 14.1305 24.037 14.467 23.8127C16.4297 22.6351 18.4485 21.5135 20.4673 20.3359C20.6916 20.1677 20.8037 19.9433 20.8598 19.663C20.8598 17.2516 20.8598 14.8403 20.8598 12.429C20.8598 12.2046 20.7477 12.0364 20.5794 11.9243C17.2708 9.96154 13.9623 8.05491 10.7098 6.14827L6.95257 3.96125Z" fill="#7035CC"/>
<path d="M2.29932 6.65301C2.69186 6.48478 3.0844 6.20439 3.47695 5.98008C4.26203 5.25107 4.99104 5.53146 5.77613 6.03616C9.75763 8.39141 13.8513 10.7467 17.8889 13.1019C18.2814 13.2702 18.5057 13.6627 18.5057 14.1113C18.4497 15.5133 18.5057 16.8591 18.5057 18.2611C18.5057 18.4854 18.3936 18.6536 18.2253 18.8218C16.8234 19.663 15.3654 20.5042 13.9074 21.3453C12.5054 20.5042 11.0474 19.7191 9.64548 18.8779C9.47724 18.7658 9.36509 18.5415 9.30901 18.3171C9.30901 16.747 9.30901 15.1768 9.30901 13.4384C10.0941 13.887 10.8231 14.2796 11.5521 14.7282C11.6643 14.7843 11.6643 15.0646 11.6643 15.289C11.7203 16.018 11.496 16.803 11.7764 17.3638C12.0568 17.8685 12.898 18.1489 13.5148 18.4293C13.7952 18.4854 14.0756 18.4854 14.356 18.4293C14.4121 18.4293 14.4121 18.3732 14.4681 18.3732C16.0944 17.9246 16.4309 16.6909 16.2066 15.2329C16.1505 15.0086 16.0383 14.7843 15.8701 14.6721C12.5054 12.7094 9.14078 10.7467 5.8322 8.78396C4.5985 8.05495 3.47695 7.38202 2.29932 6.65301Z" fill="#7035CC"/>
<path d="M41.9248 17.1933C41.5525 17.2363 41.1444 17.2577 40.7006 17.2577C39.5551 17.2577 38.6674 16.8926 38.0374 16.1624C37.4217 15.4321 37.1138 14.4084 37.1138 13.0911V1.96578C37.1138 1.751 37.2212 1.64361 37.436 1.64361H39.2831C39.4978 1.64361 39.6052 1.751 39.6052 1.96578V13.0052C39.6052 13.7068 39.7198 14.2151 39.9489 14.5301C40.178 14.8308 40.5359 14.9811 41.0227 14.9811C41.1946 14.9811 41.4666 14.9668 41.8389 14.9382C42.0537 14.9382 42.161 15.0456 42.161 15.2603V16.8497C42.161 17.0644 42.0823 17.179 41.9248 17.1933ZM53.1088 12.9193C53.1088 14.2509 52.665 15.3104 51.7772 16.0979C50.8895 16.8711 49.7011 17.2577 48.212 17.2577C46.7229 17.2577 45.5345 16.8711 44.6467 16.0979C43.759 15.3104 43.3151 14.2509 43.3151 12.9193V10.0413C43.3151 8.69538 43.759 7.62151 44.6467 6.81968C45.5345 6.01786 46.7229 5.61695 48.212 5.61695C49.7011 5.61695 50.8895 6.01786 51.7772 6.81968C52.665 7.62151 53.1088 8.69538 53.1088 10.0413V12.9193ZM45.828 12.9193C45.828 14.3225 46.6227 15.0241 48.212 15.0241C48.9852 15.0241 49.5722 14.8451 49.9731 14.4871C50.3884 14.1292 50.596 13.6066 50.596 12.9193V10.0413C50.596 9.33971 50.3884 8.80277 49.9731 8.43049C49.5579 8.0439 48.9709 7.8506 48.212 7.8506C47.4388 7.8506 46.8446 8.03674 46.4294 8.40902C46.0284 8.78129 45.828 9.32539 45.828 10.0413V12.9193ZM63.694 16.055C62.5629 16.8568 61.2957 17.2577 59.8925 17.2577C58.4034 17.2577 57.2293 16.864 56.3702 16.0765C55.5111 15.289 55.0816 14.2366 55.0816 12.9193V9.93391C55.0816 8.61663 55.5111 7.57139 56.3702 6.79821C57.2293 6.0107 58.3963 5.61695 59.8711 5.61695C61.1168 5.61695 62.2909 5.96058 63.3934 6.64786C63.5652 6.76241 63.5938 6.91275 63.4793 7.09889L62.6417 8.38754C62.5271 8.54504 62.3768 8.57368 62.1906 8.47345C61.4747 8.05822 60.723 7.8506 59.9355 7.8506C59.1766 7.8506 58.5896 8.02958 58.1743 8.38754C57.7734 8.7455 57.573 9.26095 57.573 9.93391V12.9408C57.573 13.5994 57.7734 14.1149 58.1743 14.4871C58.5896 14.8451 59.1695 15.0241 59.914 15.0241C60.7874 15.0241 61.6179 14.7663 62.4054 14.2509C62.6059 14.1363 62.7562 14.165 62.8564 14.3368L63.7585 15.6254C63.873 15.7973 63.8515 15.9404 63.694 16.055ZM74.8984 17H72.6218C72.4213 17 72.2853 16.9356 72.2137 16.8067L68.8418 12.3823L68.09 13.1555V16.6778C68.09 16.8926 67.9827 17 67.7679 17H65.9208C65.706 17 65.5987 16.8926 65.5987 16.6778V1.96578C65.5987 1.751 65.706 1.64361 65.9208 1.64361H67.7679C67.9827 1.64361 68.09 1.751 68.09 1.96578V10.1272L71.8701 6.02502C71.956 5.92479 72.0849 5.87468 72.2567 5.87468H74.4689C74.612 5.87468 74.6979 5.91047 74.7266 5.98206C74.7552 6.05365 74.7266 6.13956 74.6407 6.23979L70.4955 10.6427L75.0917 16.6134C75.1633 16.728 75.1848 16.821 75.1561 16.8926C75.1275 16.9642 75.0416 17 74.8984 17ZM78.9316 13.1126C78.9316 13.6996 79.0748 14.1578 79.3612 14.4871C79.6619 14.8165 80.0843 14.9811 80.6284 14.9811C80.7572 14.9811 81.0507 14.9668 81.5089 14.9382C81.738 14.9382 81.8526 15.0384 81.8526 15.2388V16.8711C81.8526 17.0859 81.7523 17.2005 81.5519 17.2148C81.0651 17.2434 80.6856 17.2577 80.4136 17.2577C79.2252 17.2577 78.2658 16.9356 77.5356 16.2912C76.8054 15.6326 76.4402 14.6303 76.4402 13.2844V3.4692C76.4402 3.26874 76.5476 3.16851 76.7624 3.16851H78.3947C78.5808 3.16851 78.6882 3.26158 78.7169 3.44772L78.9102 6.02502H81.2082C81.423 6.02502 81.5304 6.12525 81.5304 6.3257V7.89356C81.5304 8.09401 81.423 8.19424 81.2082 8.19424H78.9316V13.1126ZM86.1697 5.98206C86.8713 5.73865 87.6445 5.61695 88.4893 5.61695C89.8925 5.61695 91.0236 6.01786 91.8827 6.81968C92.7418 7.60719 93.1714 8.82425 93.1714 10.4709V16.6778C93.1714 16.8926 93.0711 17 92.8707 17H91.0021C90.7874 17 90.68 16.8926 90.68 16.6778V10.5353C90.68 9.54732 90.4795 8.85288 90.0786 8.45197C89.6777 8.05106 89.062 7.8506 88.2315 7.8506C87.3724 7.8506 86.6852 7.97947 86.1697 8.2372V16.6778C86.1697 16.8926 86.0623 17 85.8475 17H84.0005C83.7857 17 83.6783 16.8926 83.6783 16.6778V1.96578C83.6783 1.751 83.7857 1.64361 84.0005 1.64361H85.8475C86.0623 1.64361 86.1697 1.751 86.1697 1.96578V5.98206ZM97.9276 17H96.0805C95.8658 17 95.7584 16.8926 95.7584 16.6778V6.79821C95.7584 6.61207 95.8371 6.49036 95.9946 6.43309C97.1115 5.88899 98.3643 5.61695 99.7532 5.61695C100.483 5.61695 101.214 5.67422 101.944 5.78877C102.13 5.80308 102.223 5.91047 102.223 6.11093V7.6573C102.223 7.87208 102.109 7.95799 101.879 7.91503C101.522 7.85776 100.942 7.82912 100.14 7.82912C99.3523 7.82912 98.7223 7.92935 98.2498 8.12981V16.6778C98.2498 16.8926 98.1424 17 97.9276 17ZM112.687 10.0198V12.189C112.687 12.3895 112.579 12.4897 112.364 12.4897H105.835V13.0911C105.835 13.7354 106.036 14.2294 106.437 14.573C106.852 14.9024 107.41 15.067 108.112 15.067C109.157 15.067 110.167 14.7377 111.14 14.0791C111.312 13.9645 111.455 13.986 111.57 14.1435L112.45 15.3248C112.594 15.4823 112.572 15.6326 112.386 15.7758C111.14 16.7637 109.687 17.2577 108.026 17.2577C106.709 17.2577 105.592 16.8998 104.676 16.1839C103.774 15.4536 103.322 14.4155 103.322 13.0696V10.0198C103.322 8.54504 103.781 7.44253 104.697 6.7123C105.613 5.98206 106.73 5.61695 108.048 5.61695C109.35 5.61695 110.446 5.98206 111.334 6.7123C112.236 7.44253 112.687 8.54504 112.687 10.0198ZM110.26 9.99835C110.26 9.2538 110.052 8.70254 109.637 8.34458C109.222 7.98662 108.692 7.80765 108.048 7.80765C106.573 7.80765 105.835 8.53788 105.835 9.99835V10.5568H110.26V9.99835ZM114.843 6.75525C115.946 5.99638 117.349 5.61695 119.053 5.61695C120.442 5.61695 121.53 5.98206 122.317 6.7123C123.119 7.42821 123.52 8.5164 123.52 9.97687V16.2483C123.52 16.4201 123.441 16.5418 123.284 16.6134C121.895 17.043 120.456 17.2577 118.967 17.2577C117.578 17.2577 116.433 16.9714 115.531 16.3986C114.629 15.8259 114.177 14.9167 114.177 13.671C114.177 12.5398 114.6 11.6879 115.445 11.1152C116.304 10.5281 117.449 10.2346 118.881 10.2346C119.454 10.2346 120.17 10.2919 121.029 10.4064V9.99835C121.029 9.22516 120.864 8.6739 120.535 8.34458C120.22 8.00094 119.669 7.82912 118.881 7.82912C117.821 7.82912 116.905 8.05822 116.132 8.5164C115.96 8.64527 115.817 8.61663 115.702 8.43049L114.843 7.12037C114.743 6.96287 114.743 6.84116 114.843 6.75525ZM116.69 13.6495C116.69 14.1363 116.898 14.5015 117.313 14.7449C117.728 14.974 118.28 15.0885 118.967 15.0885C119.626 15.0885 120.313 15.0026 121.029 14.8308V12.4038C120.256 12.2893 119.561 12.232 118.945 12.232C117.442 12.232 116.69 12.7045 116.69 13.6495ZM128.514 13.1126C128.514 13.6996 128.658 14.1578 128.944 14.4871C129.245 14.8165 129.667 14.9811 130.211 14.9811C130.34 14.9811 130.633 14.9668 131.092 14.9382C131.321 14.9382 131.435 15.0384 131.435 15.2388V16.8711C131.435 17.0859 131.335 17.2005 131.135 17.2148C130.648 17.2434 130.268 17.2577 129.996 17.2577C128.808 17.2577 127.849 16.9356 127.118 16.2912C126.388 15.6326 126.023 14.6303 126.023 13.2844V3.4692C126.023 3.26874 126.13 3.16851 126.345 3.16851H127.977C128.164 3.16851 128.271 3.26158 128.3 3.44772L128.493 6.02502H130.791C131.006 6.02502 131.113 6.12525 131.113 6.3257V7.89356C131.113 8.09401 131.006 8.19424 130.791 8.19424H128.514V13.1126Z" fill="#1F2937"/>
<path d="M38.5612 24.896C39.1212 24.896 39.5985 25.1013 39.9932 25.512C40.3879 25.9227 40.5852 26.4187 40.5852 27C40.5852 27.5867 40.3879 28.0853 39.9932 28.496C39.6039 28.9013 39.1265 29.104 38.5612 29.104C37.8999 29.104 37.3959 28.84 37.0492 28.312V30.6H36.3532V25H37.0492V25.688C37.3959 25.16 37.8999 24.896 38.5612 24.896ZM38.4732 28.432C38.8732 28.432 39.2092 28.296 39.4812 28.024C39.7532 27.7413 39.8892 27.4 39.8892 27C39.8892 26.5947 39.7532 26.256 39.4812 25.984C39.2092 25.7067 38.8732 25.568 38.4732 25.568C38.0679 25.568 37.7292 25.7067 37.4572 25.984C37.1852 26.256 37.0492 26.5947 37.0492 27C37.0492 27.4 37.1852 27.7413 37.4572 28.024C37.7292 28.296 38.0679 28.432 38.4732 28.432ZM44.7917 28.496C44.3864 28.9013 43.8877 29.104 43.2957 29.104C42.7037 29.104 42.205 28.9013 41.7997 28.496C41.3944 28.0907 41.1917 27.592 41.1917 27C41.1917 26.408 41.3944 25.9093 41.7997 25.504C42.205 25.0987 42.7037 24.896 43.2957 24.896C43.8877 24.896 44.3864 25.0987 44.7917 25.504C45.2024 25.9147 45.4077 26.4133 45.4077 27C45.4077 27.5867 45.2024 28.0853 44.7917 28.496ZM43.2957 28.424C43.6957 28.424 44.0317 28.288 44.3037 28.016C44.5757 27.744 44.7117 27.4053 44.7117 27C44.7117 26.5947 44.5757 26.256 44.3037 25.984C44.0317 25.712 43.6957 25.576 43.2957 25.576C42.901 25.576 42.5677 25.712 42.2957 25.984C42.0237 26.256 41.8877 26.5947 41.8877 27C41.8877 27.4053 42.0237 27.744 42.2957 28.016C42.5677 28.288 42.901 28.424 43.2957 28.424ZM49.9039 28.048L50.7839 25H51.5119L50.2719 29H49.5599L48.6239 26.04L47.6879 29H46.9759L45.7359 25H46.4639L47.3439 28.04L48.2879 25H48.9599L49.9039 28.048ZM55.9119 27.32H52.5599C52.6293 27.672 52.7919 27.9493 53.0479 28.152C53.3039 28.3493 53.6239 28.448 54.0079 28.448C54.5359 28.448 54.9199 28.2533 55.1599 27.864L55.7519 28.2C55.3573 28.8027 54.7706 29.104 53.9919 29.104C53.3626 29.104 52.8453 28.9067 52.4399 28.512C52.0453 28.1067 51.8479 27.6027 51.8479 27C51.8479 26.392 52.0426 25.8907 52.4319 25.496C52.8213 25.096 53.3253 24.896 53.9439 24.896C54.5306 24.896 55.0079 25.104 55.3759 25.52C55.7493 25.9253 55.9359 26.4213 55.9359 27.008C55.9359 27.1093 55.9279 27.2133 55.9119 27.32ZM53.9439 25.552C53.5759 25.552 53.2666 25.656 53.0159 25.864C52.7706 26.072 52.6186 26.3547 52.5599 26.712H55.2319C55.1733 26.344 55.0266 26.0587 54.7919 25.856C54.5573 25.6533 54.2746 25.552 53.9439 25.552ZM57.432 25V25.672C57.6613 25.176 58.0773 24.928 58.68 24.928V25.656C58.3387 25.64 58.0453 25.7307 57.8 25.928C57.5547 26.1253 57.432 26.4427 57.432 26.88V29H56.736V25H57.432ZM62.9823 27.32H59.6303C59.6996 27.672 59.8623 27.9493 60.1183 28.152C60.3743 28.3493 60.6943 28.448 61.0783 28.448C61.6063 28.448 61.9903 28.2533 62.2303 27.864L62.8223 28.2C62.4276 28.8027 61.8409 29.104 61.0623 29.104C60.4329 29.104 59.9156 28.9067 59.5103 28.512C59.1156 28.1067 58.9183 27.6027 58.9183 27C58.9183 26.392 59.1129 25.8907 59.5023 25.496C59.8916 25.096 60.3956 24.896 61.0143 24.896C61.6009 24.896 62.0783 25.104 62.4463 25.52C62.8196 25.9253 63.0063 26.4213 63.0063 27.008C63.0063 27.1093 62.9983 27.2133 62.9823 27.32ZM61.0143 25.552C60.6463 25.552 60.3369 25.656 60.0863 25.864C59.8409 26.072 59.6889 26.3547 59.6303 26.712H62.3023C62.2436 26.344 62.0969 26.0587 61.8623 25.856C61.6276 25.6533 61.3449 25.552 61.0143 25.552ZM67.1105 25.688V23.4H67.8065V29H67.1105V28.312C66.7692 28.84 66.2652 29.104 65.5985 29.104C65.0332 29.104 64.5558 28.9013 64.1665 28.496C63.7718 28.0853 63.5745 27.5867 63.5745 27C63.5745 26.4187 63.7718 25.9227 64.1665 25.512C64.5612 25.1013 65.0385 24.896 65.5985 24.896C66.2652 24.896 66.7692 25.16 67.1105 25.688ZM65.6865 28.432C66.0918 28.432 66.4305 28.296 66.7025 28.024C66.9745 27.7413 67.1105 27.4 67.1105 27C67.1105 26.5947 66.9745 26.256 66.7025 25.984C66.4305 25.7067 66.0918 25.568 65.6865 25.568C65.2865 25.568 64.9505 25.7067 64.6785 25.984C64.4065 26.256 64.2705 26.5947 64.2705 27C64.2705 27.4 64.4065 27.7413 64.6785 28.024C64.9505 28.296 65.2865 28.432 65.6865 28.432ZM73.069 24.896C73.629 24.896 74.1063 25.1013 74.501 25.512C74.8957 25.9227 75.093 26.4187 75.093 27C75.093 27.5867 74.8957 28.0853 74.501 28.496C74.1117 28.9013 73.6343 29.104 73.069 29.104C72.4077 29.104 71.9037 28.84 71.557 28.312V29H70.861V23.4H71.557V25.688C71.9037 25.16 72.4077 24.896 73.069 24.896ZM72.981 28.432C73.381 28.432 73.717 28.296 73.989 28.024C74.261 27.7413 74.397 27.4 74.397 27C74.397 26.5947 74.261 26.256 73.989 25.984C73.717 25.7067 73.381 25.568 72.981 25.568C72.5757 25.568 72.237 25.7067 71.965 25.984C71.693 26.256 71.557 26.5947 71.557 27C71.557 27.4 71.693 27.7413 71.965 28.024C72.237 28.296 72.5757 28.432 72.981 28.432ZM77.4073 28.136L78.5593 25H79.3033L77.6713 29.248C77.4953 29.7013 77.2526 30.0453 76.9433 30.28C76.6393 30.52 76.2899 30.6267 75.8953 30.6V29.952C76.3859 29.9893 76.7459 29.7173 76.9753 29.136L77.0473 28.984L75.3033 25H76.0473L77.4073 28.136ZM84.6234 29.154C83.7948 29.154 83.1018 28.8753 82.5444 28.318C81.9944 27.7607 81.7194 27.0713 81.7194 26.25C81.7194 25.4287 81.9944 24.7393 82.5444 24.182C83.1018 23.6247 83.7948 23.346 84.6234 23.346C85.1588 23.346 85.6464 23.4743 86.0864 23.731C86.5264 23.9877 86.8601 24.3323 87.0874 24.765L85.8664 25.48C85.7564 25.2527 85.5878 25.073 85.3604 24.941C85.1404 24.809 84.8911 24.743 84.6124 24.743C84.1871 24.743 83.8351 24.886 83.5564 25.172C83.2778 25.4507 83.1384 25.81 83.1384 26.25C83.1384 26.6753 83.2778 27.0347 83.5564 27.328C83.8351 27.6067 84.1871 27.746 84.6124 27.746C84.8984 27.746 85.1514 27.6837 85.3714 27.559C85.5988 27.427 85.7674 27.2473 85.8774 27.02L87.1094 27.724C86.8674 28.164 86.5228 28.5123 86.0754 28.769C85.6354 29.0257 85.1514 29.154 84.6234 29.154ZM88.5639 22.84C88.3293 22.84 88.1239 22.7557 87.9479 22.587C87.7793 22.411 87.6949 22.2057 87.6949 21.971C87.6949 21.7363 87.7793 21.531 87.9479 21.355C88.1239 21.179 88.3293 21.091 88.5639 21.091C88.8059 21.091 89.0113 21.179 89.1799 21.355C89.3559 21.531 89.4439 21.7363 89.4439 21.971C89.4439 22.2057 89.3559 22.411 89.1799 22.587C89.0113 22.7557 88.8059 22.84 88.5639 22.84ZM89.2789 29H87.8599V23.5H89.2789V29ZM91.9967 23.5V24.446C92.1214 24.1013 92.334 23.841 92.6347 23.665C92.9354 23.4817 93.28 23.39 93.6687 23.39V24.974C93.236 24.9153 92.8474 25.0033 92.5027 25.238C92.1654 25.4653 91.9967 25.843 91.9967 26.371V29H90.5777V23.5H91.9967ZM95.9176 23.5V24.446C96.0423 24.1013 96.2549 23.841 96.5556 23.665C96.8563 23.4817 97.2009 23.39 97.5896 23.39V24.974C97.1569 24.9153 96.7683 25.0033 96.4236 25.238C96.0863 25.4653 95.9176 25.843 95.9176 26.371V29H94.4986V23.5H95.9176ZM102.05 26.47V23.5H103.469V29H102.05V28.384C101.712 28.8973 101.166 29.154 100.411 29.154C99.8092 29.154 99.3105 28.9523 98.9145 28.549C98.5258 28.1383 98.3315 27.581 98.3315 26.877V23.5H99.7505V26.701C99.7505 27.0603 99.8458 27.339 100.037 27.537C100.235 27.735 100.502 27.834 100.84 27.834C101.214 27.834 101.507 27.7203 101.72 27.493C101.94 27.2583 102.05 26.9173 102.05 26.47ZM106.034 25.062C106.034 25.2967 106.368 25.4983 107.035 25.667C107.27 25.7183 107.483 25.7807 107.673 25.854C107.864 25.92 108.055 26.019 108.245 26.151C108.443 26.2757 108.597 26.4443 108.707 26.657C108.817 26.8697 108.872 27.1153 108.872 27.394C108.872 27.9587 108.66 28.395 108.234 28.703C107.809 29.0037 107.285 29.154 106.661 29.154C105.532 29.154 104.762 28.7177 104.351 27.845L105.583 27.152C105.752 27.6287 106.111 27.867 106.661 27.867C107.167 27.867 107.42 27.7093 107.42 27.394C107.42 27.1593 107.087 26.9577 106.419 26.789C106.17 26.723 105.957 26.657 105.781 26.591C105.605 26.525 105.415 26.4297 105.209 26.305C105.004 26.173 104.846 26.008 104.736 25.81C104.634 25.6047 104.582 25.3663 104.582 25.095C104.582 24.5523 104.78 24.127 105.176 23.819C105.58 23.5037 106.078 23.346 106.672 23.346C107.12 23.346 107.527 23.4487 107.893 23.654C108.26 23.852 108.55 24.138 108.762 24.512L107.552 25.172C107.376 24.798 107.083 24.611 106.672 24.611C106.489 24.611 106.335 24.655 106.21 24.743C106.093 24.8237 106.034 24.93 106.034 25.062ZM110.413 29H109.717V23.16H110.413V29ZM114.787 25.688V25H115.483V29H114.787V28.312C114.446 28.84 113.942 29.104 113.275 29.104C112.71 29.104 112.233 28.9013 111.843 28.496C111.449 28.0853 111.251 27.5867 111.251 27C111.251 26.4187 111.449 25.9227 111.843 25.512C112.238 25.1013 112.715 24.896 113.275 24.896C113.942 24.896 114.446 25.16 114.787 25.688ZM113.363 28.432C113.769 28.432 114.107 28.296 114.379 28.024C114.651 27.7413 114.787 27.4 114.787 27C114.787 26.5947 114.651 26.256 114.379 25.984C114.107 25.7067 113.769 25.568 113.363 25.568C112.963 25.568 112.627 25.7067 112.355 25.984C112.083 26.256 111.947 26.5947 111.947 27C111.947 27.4 112.083 27.7413 112.355 28.024C112.627 28.296 112.963 28.432 113.363 28.432ZM118.746 24.896C119.306 24.896 119.783 25.1013 120.178 25.512C120.572 25.9227 120.77 26.4187 120.77 27C120.77 27.5867 120.572 28.0853 120.178 28.496C119.788 28.9013 119.311 29.104 118.746 29.104C118.084 29.104 117.58 28.84 117.234 28.312V29H116.538V23.4H117.234V25.688C117.58 25.16 118.084 24.896 118.746 24.896ZM118.658 28.432C119.058 28.432 119.394 28.296 119.666 28.024C119.938 27.7413 120.074 27.4 120.074 27C120.074 26.5947 119.938 26.256 119.666 25.984C119.394 25.7067 119.058 25.568 118.658 25.568C118.252 25.568 117.914 25.7067 117.642 25.984C117.37 26.256 117.234 26.5947 117.234 27C117.234 27.4 117.37 27.7413 117.642 28.024C117.914 28.296 118.252 28.432 118.658 28.432ZM122.114 26.08C122.114 26.336 122.378 26.536 122.906 26.68C123.104 26.7227 123.269 26.768 123.402 26.816C123.541 26.8587 123.69 26.9253 123.85 27.016C124.016 27.1067 124.141 27.2267 124.226 27.376C124.312 27.5253 124.354 27.7013 124.354 27.904C124.354 28.2667 124.213 28.5573 123.93 28.776C123.648 28.9947 123.29 29.104 122.858 29.104C122.474 29.104 122.141 29.0213 121.858 28.856C121.581 28.6853 121.384 28.456 121.266 28.168L121.866 27.824C121.93 28.016 122.05 28.168 122.226 28.28C122.402 28.392 122.613 28.448 122.858 28.448C123.098 28.448 123.29 28.4027 123.434 28.312C123.578 28.2213 123.65 28.0853 123.65 27.904C123.65 27.632 123.386 27.4347 122.858 27.312C122.682 27.264 122.549 27.2267 122.458 27.2C122.368 27.1733 122.242 27.1253 122.082 27.056C121.928 26.9867 121.81 26.9147 121.73 26.84C121.65 26.76 121.576 26.656 121.506 26.528C121.442 26.3947 121.41 26.248 121.41 26.088C121.41 25.7413 121.544 25.456 121.81 25.232C122.082 25.008 122.421 24.896 122.826 24.896C123.152 24.896 123.44 24.9707 123.69 25.12C123.946 25.264 124.138 25.4667 124.266 25.728L123.682 26.056C123.538 25.7147 123.253 25.544 122.826 25.544C122.624 25.544 122.453 25.592 122.314 25.688C122.181 25.784 122.114 25.9147 122.114 26.08Z" fill="#1F2937"/>
</svg>
